<svg version="1.2" xmlns="http://www.w3.org/2000/svg" viewBox="0 0 1567 723" width="1567" height="723">
	<title>SVB_SiliconValleyBank_Horizontal_logo-svg</title>
	<style>
		.s0 { fill: #003149 } 
		.s1 { fill: #00c0ff } 
	</style>
	<path id="Layer" fill-rule="evenodd" class="s0" d="m200.7 358.8c68.6 11.6 152.1 25.5 152.1 116.8 0 79.6-65.2 127.6-176.4 127.6-111.2 0-176.4-49.5-176.4-134.2h94.9c0 43.4 30.5 68.9 81.2 68.9 49.5 0 78.2-18.2 78.2-50.7 0-41-45.7-48.7-96.7-57.2-67.3-10.9-147.8-24-147.8-113 0-73.4 62.9-117.5 166.6-117.5 103.6 0 165.6 47.2 165.6 127.6h-94.8c0-41-25.5-64.1-70.5-64.1-42.5 0-68 17-68 45.6 0 34.7 42.2 41.7 91.7 50.2m351.7 199.5l88.8-351h109.5l-113.2 388.1h-171.3l-113.1-388.1h109.4l88.8 351zm457.4-357.7c108.4 0 170.2 80.8 170.2 201.9 0 118.9-66.6 203.2-170.2 201.8-12.8 0-25.5-1.8-37.8-5.3-12.3-3.5-24-8.7-34.8-15.5-10.9-6.7-20.7-15-29.3-24.5-8.5-9.5-15.7-20.1-21.2-31.6h-1.2l-37.7 68h-65.1v-595.4h102.1v281.3h1.2c4.8-12.1 11.5-23.5 19.7-33.7 8.3-10.2 18.1-19 29.1-26.2 10.9-7.2 22.9-12.6 35.5-16.2 12.7-3.5 25.7-5.1 38.9-4.7zm65.1 202.2c0-61.3-23.9-121.4-98.3-121.4-49.9 0-79.2 31.9-91.4 72.9q-1.8 5.9-3.1 11.9-1.3 6-2.1 12.1-0.9 6.1-1.3 12.2-0.4 6.1-0.4 12.3 0 6.3 0.4 12.6 0.4 6.3 1.2 12.5 0.9 6.3 2.2 12.4 1.3 6.2 3.1 12.2c13.2 43.9 45.3 70.8 91.4 70.8 65.5 0 98.3-49.3 98.3-120.5z"/>
	<path id="Layer" class="s1" d="m1306.6 80.1l259.4 321.2-259.4 321.2-80.6-50 152.6-271.2-152.6-271.2 80.6-50z"/>
</svg>